<?xml version="1.0" encoding="utf-8"?>
<!-- Generator: Adobe Illustrator 24.1.0, SVG Export Plug-In . SVG Version: 6.00 Build 0)  -->
<svg version="1.1" xmlns="http://www.w3.org/2000/svg" xmlns:xlink="http://www.w3.org/1999/xlink" x="0px" y="0px"
	 viewBox="0 0 595.3 841.9" style="enable-background:new 0 0 595.3 841.9;" xml:space="preserve">
<style type="text/css">
	.st0{fill:none;stroke:#000000;stroke-width:0.75;stroke-miterlimit:11.3386;stroke-dasharray:6,6;}
	.st1{fill:none;stroke:#000000;stroke-width:0.75;stroke-miterlimit:11.3386;}
	.st2{fill:none;stroke:#000000;stroke-width:0.7512;stroke-miterlimit:11.3386;stroke-dasharray:6.0094,6.0094;}
	.st3{font-family:'HelveticaNeue';}
	.st4{font-size:15.0782px;}
	.st5{font-size:41.943px;}
	.st6{font-size:29.2816px;}
</style>
<g id="Design" xmlns:cc="http://creativecommons.org/ns#" xmlns:dc="http://purl.org/dc/elements/1.1/" xmlns:rdf="http://www.w3.org/1999/02/22-rdf-syntax-ns#" xmlns:svg="http://www.w3.org/2000/svg">
	<g id="corners">
		<path id="path833" class="st0" d="M496.6,357.5h-17.8l-0.1-15.5"/>
		<path id="path835" class="st0" d="M499.2,596.3h-19.4l0.1,14.1"/>
		<path id="path837" class="st0" d="M141,609.3l-6-11.7h-15.2"/>
		<path id="path839" class="st0" d="M203.9,166.7l-9,10l-11.7-13.1"/>
	</g>
	<g id="outer_border">
		<path id="path827" class="st1" d="M499.3,610.4l-375-1.1c-61.5-158.4-58.9-314,68.9-457.2c89.7,125,182.8,184.2,303.4,191.3
			L499.3,610.4z"/>
	</g>
	<g id="stitch_line">
		<path id="path830" class="st2" d="M478.8,357.5l0.9,238.8L135,597.6c-72.7-184.5-32.4-310.1,59.9-420.9
			C257.1,248.8,300.4,327.9,478.8,357.5z"/>
	</g>
	<g id="strap_line">
		<path id="path975" class="st2" d="M437.6,334.8l-1.9,272.3"/>
	</g>
</g>
<g id="Text">
	<text transform="matrix(1 0 0 1 43.96 93.9738)" class="st3 st4">Size: small</text>
	<text transform="matrix(1 0 0 1 43.9598 64.7058)" class="st3 st5">Facetop</text>
	<text transform="matrix(1 0 0 1 396.7106 811.9282)" class="st3 st4">http://www.facetop.earth</text>
	<text transform="matrix(1 0 0 1 470.7109 788.751)" class="st3 st6">EARTH</text>
</g>
<g id="Measurement">
	<g>
		<text id="_x32__inches" transform="matrix(1 0 0 1 538.549 468.861)" class="st3 st4">2”</text>
		<text id="_x31__inch" transform="matrix(1 0 0 1 538.549 539.6497)" class="st3 st4">1”</text>
		<text id="_x30__inches" transform="matrix(1 0 0 1 538.549 610.4384)" class="st3 st4">0</text>
		<path id="vertical_line" class="st1" d="M523.7,463.4v143.8"/>
		<path id="bottom_line" class="st1" d="M533.6,607.1h-9.9"/>
		<path id="middle_line" class="st1" d="M535.3,534.6h-12"/>
		<path id="top_line" class="st1" d="M535.3,463.4h-11.6"/>
	</g>
</g>
</svg>
