<?xml version="1.0" encoding="utf-8"?>
<!-- Generator: Adobe Illustrator 24.1.0, SVG Export Plug-In . SVG Version: 6.00 Build 0)  -->
<svg version="1.1"
	 id="svg8" inkscape:version="0.92.4 (5da689c313, 2019-01-14)" sodipodi:docname="mask+2+large+pattern.svg" xmlns:cc="http://creativecommons.org/ns#" xmlns:dc="http://purl.org/dc/elements/1.1/" xmlns:inkscape="http://www.inkscape.org/namespaces/inkscape" xmlns:rdf="http://www.w3.org/1999/02/22-rdf-syntax-ns#" xmlns:sodipodi="http://sodipodi.sourceforge.net/DTD/sodipodi-0.dtd" xmlns:svg="http://www.w3.org/2000/svg"
	 xmlns="http://www.w3.org/2000/svg" xmlns:xlink="http://www.w3.org/1999/xlink" x="0px" y="0px" viewBox="0 0 595.3 841.9"
	 style="enable-background:new 0 0 595.3 841.9;" xml:space="preserve">
<style type="text/css">
	.st0{display:none;}
	.st1{display:inline;}
	.st2{font-family:'Helvetica-Light';}
	.st3{font-size:14px;}
	.st4{font-size:12px;}
	.st5{fill:none;stroke:#000000;stroke-width:0.75;stroke-miterlimit:11.3386;}
	.st6{fill:none;stroke:#000000;stroke-width:0.75;stroke-miterlimit:11.3386;stroke-dasharray:6,6;}
	.st7{fill:none;stroke:#000000;stroke-width:0.7512;stroke-miterlimit:11.3386;stroke-dasharray:6.0094,6.0094;}
	.st8{font-family:'HelveticaNeue';}
	.st9{font-size:41.943px;}
	.st10{font-size:15.0782px;}
</style>
<sodipodi:namedview  bordercolor="#666666" borderopacity="1.0" id="base" inkscape:current-layer="layer1" inkscape:cx="385.49262" inkscape:cy="755.90099" inkscape:document-units="in" inkscape:pageopacity="0.0" inkscape:pageshadow="2" inkscape:window-height="755" inkscape:window-maximized="0" inkscape:window-width="1253" inkscape:window-x="26" inkscape:window-y="0" inkscape:zoom="0.45254834" pagecolor="#ffffff" showgrid="false" units="in">
	</sodipodi:namedview>
<g id="layer1" inkscape:groupmode="layer" inkscape:label="Laag 1" class="st0">
	
		<image style="display:inline;overflow:visible;opacity:0.564;enable-background:new    ;" width="1329" height="850" id="image823" xlink:href="FE9C9A86BB963870.png"  transform="matrix(0.75 0 0 0.75 -197.3036 4.5684)">
	</image>
	<text transform="matrix(1 0 0 1 242.8418 432.1738)" class="st1 st2 st3">Cut 4</text>
	<text transform="matrix(1 0 0 1 313.0078 233.6875)" class="st1 st2 st3">Basic mask patern large</text>
	<text transform="matrix(1 0 0 1 564.2617 628.1016)" class="st1 st2 st4">0</text>
	<text transform="matrix(1 0 0 1 563.0195 557.252)" class="st1 st2 st4">1&quot;</text>
	<text transform="matrix(1 0 0 1 561.7764 487.2324)" class="st1 st2 st4">2&quot;</text>
	<text transform="matrix(1 0 0 1 389.4189 625.6152)" class="st1 st2 st4">o</text>
	<text transform="matrix(1 0 0 1 392.3193 335.1758)" class="st1 st2 st4">o</text>
</g>
<g id="layer6" inkscape:groupmode="layer" inkscape:label="Laag 6">
</g>
<g id="layer2" inkscape:groupmode="layer" inkscape:label="Laag 2">
	<path id="path918" inkscape:connector-curvature="0" sodipodi:nodetypes="ccccccc" class="st5" d="M496.9,633.1l-103.8,0.4
		l-280.5-1.1C56.3,487.5,3.8,318.7,187.3,127.6c42.4,78.4,80.1,201.5,208.3,196.9l105.5-0.3L496.9,633.1z"/>
</g>
<g id="layer3" inkscape:groupmode="layer" inkscape:label="Laag 3">
	<path id="path961" inkscape:connector-curvature="0" class="st5" d="M543.5,484.3v143.8"/>
	<path id="path965" inkscape:connector-curvature="0" class="st5" d="M555.1,484.3h-11.6"/>
	<path id="path967" inkscape:connector-curvature="0" class="st5" d="M555.1,555.6h-12"/>
	<path id="path969" inkscape:connector-curvature="0" class="st5" d="M553.5,628.1h-9.9"/>
</g>
<g id="layer4" inkscape:groupmode="layer" inkscape:label="Laag 4">
	<path id="path972" inkscape:connector-curvature="0" sodipodi:nodetypes="cccccc" class="st6" d="M479.7,614.8l-355.5,0.4
		C89.6,487.2,13.9,365,183.1,159.1c42.8,85.5,88.4,186.6,213,181.5h89.5L479.7,614.8z"/>
	<path id="path986" inkscape:connector-curvature="0" class="st6" d="M183.1,159.1l14.5-11.8"/>
	<path id="path988" inkscape:connector-curvature="0" class="st6" d="M176.5,139.1l6.6,20"/>
	<path id="path990" inkscape:connector-curvature="0" class="st6" d="M131.9,632.2l-7.7-17l-18.2,0.2"/>
	<path id="path992" inkscape:connector-curvature="0" class="st6" d="M496.9,615l-17.2-0.2l-0.2,18"/>
	<path id="path994" inkscape:connector-curvature="0" class="st6" d="M500.7,340.6h-15.1l0.2-16.6"/>
</g>
<g id="layer5" inkscape:groupmode="layer" inkscape:label="Laag 5">
	<path id="path975" inkscape:connector-curvature="0" class="st7" d="M395.6,324.4l-1.9,309.1"/>
</g>
<text transform="matrix(1 0 0 1 30.4315 57.8713)" class="st8 st9">Facetop</text>
<text transform="matrix(1 0 0 1 30.4315 90.8209)" class="st8 st10">Size: large</text>
<text transform="matrix(1 0 0 1 558.4315 489.8209)" class="st8 st10">2”</text>
<text transform="matrix(1 0 0 1 558.4315 560.6096)" class="st8 st10">1”</text>
<text transform="matrix(1 0 0 1 558.4315 631.3983)" class="st8 st10">0</text>
</svg>
