<?xml version="1.0" encoding="utf-8"?>
<!-- Generator: Adobe Illustrator 24.1.0, SVG Export Plug-In . SVG Version: 6.00 Build 0)  -->
<svg version="1.1" xmlns="http://www.w3.org/2000/svg" xmlns:xlink="http://www.w3.org/1999/xlink" x="0px" y="0px"
	 viewBox="0 0 595.3 841.9" style="enable-background:new 0 0 595.3 841.9;" xml:space="preserve">
<style type="text/css">
	.st0{font-family:'Helvetica-Light';}
	.st1{font-size:12px;}
	.st2{fill:none;stroke:#000000;stroke-width:0.75;stroke-miterlimit:11.3386;stroke-dasharray:6,6;}
	.st3{fill:none;stroke:#000000;stroke-width:0.75;stroke-miterlimit:11.3386;}
	.st4{fill:none;stroke:#000000;stroke-width:0.6784;stroke-miterlimit:11.3386;}
	.st5{fill:none;stroke:#000000;stroke-width:0.7873;stroke-miterlimit:11.3386;}
	.st6{fill:none;stroke:#000000;stroke-width:0.7512;stroke-miterlimit:11.3386;stroke-dasharray:6.0094,6.0094;}
	.st7{font-family:'HelveticaNeue';}
	.st8{font-size:15.0782px;}
	.st9{font-size:41.943px;}
	.st10{font-size:29.2816px;}
</style>
<g id="SVG" xmlns:cc="http://creativecommons.org/ns#" xmlns:dc="http://purl.org/dc/elements/1.1/" xmlns:rdf="http://www.w3.org/1999/02/22-rdf-syntax-ns#" xmlns:svg="http://www.w3.org/2000/svg">
	<g id="numbers">
		<text transform="matrix(1 0 0 1 83.8389 698.3184)" class="st0 st1">0</text>
		<text transform="matrix(1 0 0 1 156.6963 699.6582)" class="st0 st1">1&quot;</text>
		<text transform="matrix(1 0 0 1 228.4824 700.0605)" class="st0 st1">2&quot;</text>
	</g>
	<g id="corners">
		<path id="path833" class="st2" d="M496.6,357.5h-17.8l-0.1-15.5"/>
		<path id="path835" class="st2" d="M499.2,596.3h-19.4l0.1,14.1"/>
		<path id="path837" class="st2" d="M141,609.3l-6-11.7h-15.2"/>
		<path id="path839" class="st2" d="M203.9,166.7l-9,10l-11.7-13.1"/>
	</g>
	<g id="measurement">
		<path id="path850" class="st3" d="M88.1,679.3l144.1,1.1"/>
		<path id="path852" class="st4" d="M232,674.5v14.5"/>
		<path id="path854" class="st5" d="M161,674.2v14.5"/>
		<path id="path856" class="st3" d="M88.3,673.8L88,686.7"/>
	</g>
	<g id="outer_stroke">
		<path id="path827" class="st3" d="M499.3,610.4l-375-1.1c-61.5-158.4-58.9-314,68.9-457.2c89.7,125,182.8,184.2,303.4,191.3
			L499.3,610.4z"/>
	</g>
	<g id="inner_stroke">
		<path id="path830" class="st6" d="M478.8,357.5l0.9,238.8L135,597.6c-72.7-184.5-32.4-310.1,59.9-420.9
			C257.1,248.8,300.4,327.9,478.8,357.5z"/>
	</g>
</g>
<g id="Test">
	<text transform="matrix(1 0 0 1 43.96 93.9738)" class="st7 st8">Size: small</text>
	<text transform="matrix(1 0 0 1 43.9598 64.7058)" class="st7 st9">Facetop</text>
	<text transform="matrix(1 0 0 1 396.7106 811.9282)" class="st7 st8">http://www.facetop.earth</text>
	<text transform="matrix(1 0 0 1 470.7109 788.751)" class="st7 st10">EARTH</text>
</g>
</svg>
